<mxfile host="app.diagrams.net" modified="2021-02-07T01:29:55.978Z" agent="5.0 (Windows NT 10.0; Win64; x64) AppleWebKit/537.36 (KHTML, like Gecko) Chrome/88.0.4324.146 Safari/537.36" etag="e6F5MFiHbY-tH7I4AkOk" version="14.2.9" type="github">
  <diagram id="1JOOmsI8Zfa0GNTSmsgw" name="Page-1">
    <mxGraphModel dx="868" dy="393" grid="1" gridSize="10" guides="1" tooltips="1" connect="1" arrows="1" fold="1" page="1" pageScale="1" pageWidth="850" pageHeight="1100" math="0" shadow="0">
      <root>
        <mxCell id="0" />
        <mxCell id="1" parent="0" />
        <mxCell id="n68_Xp8nZQGgEX2aa-e2-1" value="main page" style="shape=umlLifeline;perimeter=lifelinePerimeter;container=1;collapsible=0;recursiveResize=0;rounded=0;shadow=0;strokeWidth=1;" vertex="1" parent="1">
          <mxGeometry x="205" y="540" width="100" height="370" as="geometry" />
        </mxCell>
        <mxCell id="n68_Xp8nZQGgEX2aa-e2-2" value="" style="points=[];perimeter=orthogonalPerimeter;rounded=0;shadow=0;strokeWidth=1;" vertex="1" parent="n68_Xp8nZQGgEX2aa-e2-1">
          <mxGeometry x="45" y="80" width="10" height="290" as="geometry" />
        </mxCell>
        <mxCell id="n68_Xp8nZQGgEX2aa-e2-3" value="charge meter&#xa;wireless page " style="shape=umlLifeline;perimeter=lifelinePerimeter;container=1;collapsible=0;recursiveResize=0;rounded=0;shadow=0;strokeWidth=1;" vertex="1" parent="1">
          <mxGeometry x="385" y="540" width="115" height="400" as="geometry" />
        </mxCell>
        <mxCell id="n68_Xp8nZQGgEX2aa-e2-4" value="" style="points=[];perimeter=orthogonalPerimeter;rounded=0;shadow=0;strokeWidth=1;" vertex="1" parent="n68_Xp8nZQGgEX2aa-e2-3">
          <mxGeometry x="45" y="80" width="10" height="210" as="geometry" />
        </mxCell>
        <mxCell id="n68_Xp8nZQGgEX2aa-e2-5" value="return" style="verticalAlign=bottom;endArrow=open;dashed=1;endSize=8;shadow=0;strokeWidth=1;exitX=0.504;exitY=0.862;exitDx=0;exitDy=0;exitPerimeter=0;" edge="1" parent="1" source="n68_Xp8nZQGgEX2aa-e2-8" target="n68_Xp8nZQGgEX2aa-e2-2">
          <mxGeometry x="-0.1244" relative="1" as="geometry">
            <mxPoint x="360" y="696" as="targetPoint" />
            <mxPoint as="offset" />
          </mxGeometry>
        </mxCell>
        <mxCell id="n68_Xp8nZQGgEX2aa-e2-6" value="choose charge meter opttion" style="verticalAlign=bottom;endArrow=block;entryX=0;entryY=0;shadow=0;strokeWidth=1;" edge="1" parent="1" source="n68_Xp8nZQGgEX2aa-e2-2" target="n68_Xp8nZQGgEX2aa-e2-4">
          <mxGeometry relative="1" as="geometry">
            <mxPoint x="360" y="620" as="sourcePoint" />
          </mxGeometry>
        </mxCell>
        <mxCell id="n68_Xp8nZQGgEX2aa-e2-7" value="user" style="shape=umlActor;verticalLabelPosition=bottom;labelBackgroundColor=#ffffff;verticalAlign=top;html=1;outlineConnect=0;" vertex="1" parent="1">
          <mxGeometry x="70" y="630" width="50" height="120" as="geometry" />
        </mxCell>
        <mxCell id="n68_Xp8nZQGgEX2aa-e2-8" value="database" style="shape=umlLifeline;perimeter=lifelinePerimeter;container=1;collapsible=0;recursiveResize=0;rounded=0;shadow=0;strokeWidth=1;" vertex="1" parent="1">
          <mxGeometry x="540" y="540" width="115" height="390" as="geometry" />
        </mxCell>
        <mxCell id="n68_Xp8nZQGgEX2aa-e2-9" value="" style="points=[];perimeter=orthogonalPerimeter;rounded=0;shadow=0;strokeWidth=1;" vertex="1" parent="n68_Xp8nZQGgEX2aa-e2-8">
          <mxGeometry x="45" y="110" width="10" height="180" as="geometry" />
        </mxCell>
        <mxCell id="n68_Xp8nZQGgEX2aa-e2-10" value="enter the code retrieved &#xa;from the website" style="verticalAlign=bottom;endArrow=block;shadow=0;strokeWidth=1;entryX=0.1;entryY=0.175;entryDx=0;entryDy=0;entryPerimeter=0;" edge="1" parent="1">
          <mxGeometry relative="1" as="geometry">
            <mxPoint x="440" y="653" as="sourcePoint" />
            <mxPoint x="586" y="651" as="targetPoint" />
          </mxGeometry>
        </mxCell>
        <mxCell id="n68_Xp8nZQGgEX2aa-e2-11" value="if the code is entered &#xa;or not" style="verticalAlign=bottom;endArrow=open;dashed=1;endSize=8;shadow=0;strokeWidth=1;" edge="1" parent="1">
          <mxGeometry relative="1" as="geometry">
            <mxPoint x="440" y="730" as="targetPoint" />
            <mxPoint x="580" y="730" as="sourcePoint" />
          </mxGeometry>
        </mxCell>
        <mxCell id="n68_Xp8nZQGgEX2aa-e2-12" value="if not used the process is &#xa;done successfully by the&#xa; meter" style="verticalAlign=bottom;endArrow=block;shadow=0;strokeWidth=1;entryX=0.1;entryY=0.175;entryDx=0;entryDy=0;entryPerimeter=0;" edge="1" parent="1">
          <mxGeometry x="-0.0409" y="1" relative="1" as="geometry">
            <mxPoint x="440" y="799" as="sourcePoint" />
            <mxPoint x="586" y="797" as="targetPoint" />
            <mxPoint as="offset" />
          </mxGeometry>
        </mxCell>
      </root>
    </mxGraphModel>
  </diagram>
</mxfile>
